<svg id="Capa_1" data-name="Capa 1" xmlns="http://www.w3.org/2000/svg" xmlns:xlink="http://www.w3.org/1999/xlink" viewBox="0 0 38.92 25.08"><defs><style>.cls-1{fill:none;}.cls-2{clip-path:url(#clip-path);}.cls-3{fill:#011018;}</style><clipPath id="clip-path"><rect class="cls-1" x="-940.54" y="-4511.66" width="1920" height="4941.88"/></clipPath></defs><title>La Ponderosa pag web2-iconos</title><g class="cls-2"><path class="cls-3" d="M1.28,2.35,17.5,11.06a4.68,4.68,0,0,0,3.92,0L37.63,2.35C38.69,1.78,39.69,0,37.75,0H1.17c-1.94,0-.94,1.78.11,2.35m36.8,4.32L21.42,15.38a3.66,3.66,0,0,1-2,.44,3.64,3.64,0,0,1-2-.44L.84,6.67C0,6.23,0,6.75,0,7.15V23a2.53,2.53,0,0,0,2.14,2.07H36.77A2.53,2.53,0,0,0,38.92,23V7.15c0-.4,0-.92-.84-.48"/></g></svg>