<svg viewBox="0 0 326 209" xmlns="http://www.w3.org/2000/svg"><g fill="#1d1d1b"><path d="m49.15 191.54h1.49l-.64 11.17h-25.44v-1.45h4.44v-29.26h-4.4v-1.44h13v1.44h-4.48v29.31l7.15-.14a9.23 9.23 0 0 0 3.13-.7 7.77 7.77 0 0 0 2.76-1.59 10.07 10.07 0 0 0 3-7.29"/><path d="m75.09 201.4v1.31h-7.48v-3.83q-4.15 4.4-7.85 4.39a5.44 5.44 0 0 1 -4-1.45 5.16 5.16 0 0 1 -1.64-4.11 6.12 6.12 0 0 1 2.88-5.52 18 18 0 0 1 6-2l4.58-.79a12.38 12.38 0 0 0 -.56-4.86 3.27 3.27 0 0 0 -3.22-2.2q-4 0-4 2.67a1.84 1.84 0 0 0 .53 1.09 6 6 0 0 1 .54.68 1.25 1.25 0 0 1 -.68 1.17 1.74 1.74 0 0 1 -1.33.33c-1.56 0-2.32-.87-2.29-2.6s1.11-3 3.23-3.9a11.5 11.5 0 0 1 4.2-.78 7 7 0 0 1 5.51 2.06c1.22 1.49 1.82 3.86 1.82 7.1v10.19a.93.93 0 0 0 .33.75 1.11 1.11 0 0 0 .75.28zm-7.48-4.4v-6.08a28.88 28.88 0 0 0 -6.68 1.54 4.17 4.17 0 0 0 -2 1.73 5.1 5.1 0 0 0 -.8 2.76 3.41 3.41 0 0 0 1.05 2.53 3.77 3.77 0 0 0 2.53 1.09 5.39 5.39 0 0 0 3.13-1 10 10 0 0 0 2.77-2.57"/><path d="m101.5 170.51q5.76 0 8.7 2.52a8.53 8.53 0 0 1 2.94 6.82 7.53 7.53 0 0 1 -4 6.74q-3.47 2.15-9.25 2.14h-3.89v12.53h4.35v1.45h-13v-1.45h4.4v-29.26h-4.4v-1.44zm4.21 15.23a6.85 6.85 0 0 0 2.57-6c-.06-2.68-.68-4.64-1.84-5.89s-3-1.87-5.5-1.87h-4.94v15.52h4a8.88 8.88 0 0 0 5.7-1.73"/><path d="m133.29 183.92a10.44 10.44 0 0 1 3 7.78 10.9 10.9 0 0 1 -3.32 8.11 12.16 12.16 0 0 1 -8.69 3.37 9.54 9.54 0 0 1 -7.2-3 11.32 11.32 0 0 1 -2.8-8 11.13 11.13 0 0 1 3.13-8.16 11.39 11.39 0 0 1 8.5-3.18 9.89 9.89 0 0 1 7.39 3m-7.15 17.76a4.82 4.82 0 0 0 4.42-2.47 12.52 12.52 0 0 0 1.47-6.43 13.32 13.32 0 0 0 -2-7.18q-2.06-3.16-5.1-3.17-6.4 0-6.4 8.18a15.45 15.45 0 0 0 1.59 7.33 6.46 6.46 0 0 0 6 3.74"/><path d="m164.42 201.45v1.26h-11.42v-1.26h2.76c.59 0 .94-.36 1-1.08v-11.07a6 6 0 0 0 -1.4-4.23 4.67 4.67 0 0 0 -3.6-1.52 6.48 6.48 0 0 0 -4.07 1.45 4 4 0 0 0 -1.77 2.8v12.57c.09.72.45 1.08 1.07 1.08h2.71v1.26h-11.4v-1.26h2.71c.62 0 1-.36 1.07-1.08v-16.17a1.43 1.43 0 0 0 -1.59-1.59h-2.19v-1.26h7.7v1.26 1.31.94a7.1 7.1 0 0 1 2-2.25 8.27 8.27 0 0 1 5.19-1.87q7.51 0 7.52 8v11.63c.1.72.45 1.08 1.08 1.08z"/><path d="m193 201.45v1.26h-7.72l.19-4.11a7.87 7.87 0 0 1 -2.8 3 8.71 8.71 0 0 1 -5.28 1.68 8.53 8.53 0 0 1 -7.16-3.2 13.15 13.15 0 0 1 -2.47-8.28 11.28 11.28 0 0 1 12-11.52 13.68 13.68 0 0 1 3.65.94 4.65 4.65 0 0 1 2 1.63v-10.05a1.49 1.49 0 0 0 -1.68-1.64h-2.2v-1.31h7.71v30.48c.07.74.41 1.12 1 1.12zm-7.67-9.54v-5.91a5.25 5.25 0 0 0 -2.38-2.76 8 8 0 0 0 -4.33-1.17 5.84 5.84 0 0 0 -4.32 2c-1.46 1.59-2.31 4-2.52 7.06a9.4 9.4 0 0 0 1.73 6.41 6.47 6.47 0 0 0 5.51 3.13 5.38 5.38 0 0 0 5-2.85 11.73 11.73 0 0 0 1.31-5.85"/><path d="m213.92 191.87h-14.87a9.25 9.25 0 0 0 2.06 6.4 7.65 7.65 0 0 0 6.17 2.48c1.43 0 3.29-.72 5.56-2.15l.61.47a10.9 10.9 0 0 1 -15.94 1.12 10.79 10.79 0 0 1 -2.62-7.57 12.46 12.46 0 0 1 2.83-8.16 9.35 9.35 0 0 1 7.6-3.44 8.1 8.1 0 0 1 6.31 2.64 9.31 9.31 0 0 1 2.38 6.48c0 .34 0 .92-.09 1.73m-4-1.69a11 11 0 0 0 -1.24-5.51 4 4 0 0 0 -3.72-2.15 5.22 5.22 0 0 0 -4.16 2 8.41 8.41 0 0 0 -1.68 5.56q8.75.24 10.8.09"/><path d="m220.51 200.37v-16.12a1.43 1.43 0 0 0 -1.59-1.59h-2.15v-1.31h7.66v4.3a9.22 9.22 0 0 1 1.92-2.71 6.25 6.25 0 0 1 4.44-2.1 2.86 2.86 0 0 1 2.24.93 3.24 3.24 0 0 1 .85 2.24c0 1.72-.78 2.65-2.34 2.81a3.19 3.19 0 0 0 -3.09-2.06 3.64 3.64 0 0 0 -2.8 1.54 5.4 5.4 0 0 0 -1.26 3.51v10.56c.09.72.45 1.08 1.07 1.08h2.71v1.26h-11.35v-1.26h2.61q.84 0 1.08-1.08"/><path d="m255.19 183.92a10.44 10.44 0 0 1 3 7.78 10.93 10.93 0 0 1 -3.32 8.11 12.16 12.16 0 0 1 -8.69 3.37 9.54 9.54 0 0 1 -7.2-3 11.32 11.32 0 0 1 -2.8-8 11.13 11.13 0 0 1 3.13-8.16 11.39 11.39 0 0 1 8.5-3.18 9.89 9.89 0 0 1 7.39 3m-7.2 17.84a4.82 4.82 0 0 0 4.42-2.47 12.52 12.52 0 0 0 1.47-6.43 13.32 13.32 0 0 0 -2-7.18q-2.05-3.16-5.1-3.17-6.4 0-6.4 8.18a15.45 15.45 0 0 0 1.59 7.33 6.46 6.46 0 0 0 6 3.74"/><path d="m277.86 196.12a6.32 6.32 0 0 1 -2.5 5.21 8.9 8.9 0 0 1 -5.7 2 13.38 13.38 0 0 1 -5.78-1.22c-.5-.18-.79.1-.88.84a2.07 2.07 0 0 0 -1.08 0v-7.66h1.36v1.35a4.84 4.84 0 0 0 1.8 3.25 5.56 5.56 0 0 0 4.13 1.71 7.2 7.2 0 0 0 3.79-1 3.1 3.1 0 0 0 1.45-2.76q0-1.83-2.43-2.85-3.33-1.17-6.45-2.43-3.88-1.59-3.88-5a5.69 5.69 0 0 1 2.71-5.14 10.31 10.31 0 0 1 5.84-1.5 16.57 16.57 0 0 1 4.53 1v-.92h1.23v6.22h-1.36v-1a3.17 3.17 0 0 0 -1.57-2.74 7 7 0 0 0 -4-1.05 4.51 4.51 0 0 0 -3.53 1.26 3.1 3.1 0 0 0 -.67 2.48 2.68 2.68 0 0 0 1.33 2 27.49 27.49 0 0 0 4.09 1.66 31.81 31.81 0 0 1 5.26 2.31 4.63 4.63 0 0 1 2.24 3.93"/><path d="m301.37 201.4v1.31h-7.48v-3.83q-4.15 4.4-7.85 4.39a5.48 5.48 0 0 1 -4-1.45 5.18 5.18 0 0 1 -1.63-4.11 6.12 6.12 0 0 1 2.85-5.52 18 18 0 0 1 6-2l4.58-.79a12.38 12.38 0 0 0 -.56-4.86 3.27 3.27 0 0 0 -3.23-2.2q-4 0-4 2.67a1.81 1.81 0 0 0 .54 1.09 6 6 0 0 1 .54.68 1.26 1.26 0 0 1 -.68 1.17 1.75 1.75 0 0 1 -1.33.33c-1.56 0-2.32-.87-2.29-2.6s1.11-3 3.22-3.9a11.58 11.58 0 0 1 4.16-.75 7 7 0 0 1 5.52 2.06c1.22 1.49 1.82 3.86 1.82 7.1v10.19a.93.93 0 0 0 .33.75 1.11 1.11 0 0 0 .75.28zm-7.48-4.4v-6.08a28.88 28.88 0 0 0 -6.68 1.54 4.17 4.17 0 0 0 -2 1.73 5.1 5.1 0 0 0 -.8 2.76 3.41 3.41 0 0 0 1.05 2.53 3.75 3.75 0 0 0 2.53 1.09 5.39 5.39 0 0 0 3.13-1 10 10 0 0 0 2.78-2.59"/></g><path d="m60.19 153.6v-7.6a.66.66 0 0 0 -.74-.74h-1v-.62h3.55v2a4.16 4.16 0 0 1 .9-1.27 2.93 2.93 0 0 1 2.08-1 1.37 1.37 0 0 1 1.06.44 1.52 1.52 0 0 1 .39 1c0 .81-.36 1.25-1.09 1.32a1.51 1.51 0 0 0 -1.45-1 1.67 1.67 0 0 0 -1.32.73 2.49 2.49 0 0 0 -.59 1.65v5c0 .34.21.51.5.51h1.27v.59h-5.29v-.59h1.23c.26 0 .43-.17.5-.51" fill="#8e8d8d"/><path d="m89 149.6h-7a4.32 4.32 0 0 0 1 3 3.58 3.58 0 0 0 2.9 1.17 5.38 5.38 0 0 0 2.61-1l.29.22a4.82 4.82 0 0 1 -3.8 1.91 4.77 4.77 0 0 1 -3.62-1.39 5.05 5.05 0 0 1 -1.28-3.51 5.82 5.82 0 0 1 1.33-3.83 4.36 4.36 0 0 1 3.57-1.66 3.79 3.79 0 0 1 3 1.24 4.36 4.36 0 0 1 1.12 3v.81m-1.89-.79a5.23 5.23 0 0 0 -.58-2.59 1.9 1.9 0 0 0 -1.75-1 2.42 2.42 0 0 0 -1.95.94 4 4 0 0 0 -.8 2.62c2.74.07 4.43.09 5.08 0" fill="#8e8d8d"/><path d="m110.3 151.6a3 3 0 0 1 -1.17 2.45 4.2 4.2 0 0 1 -2.68.93 6.26 6.26 0 0 1 -2.71-.57c-.24-.08-.38.05-.42.4a.84.84 0 0 0 -.51 0v-3.6h.64v.63a2.26 2.26 0 0 0 .85 1.53 2.59 2.59 0 0 0 1.94.8 3.35 3.35 0 0 0 1.78-.46 1.44 1.44 0 0 0 .68-1.3c0-.57-.38-1-1.14-1.34q-1.56-.54-3-1.14a2.49 2.49 0 0 1 -1.83-2.35 2.7 2.7 0 0 1 1.28-2.42 4.93 4.93 0 0 1 2.74-.7 8 8 0 0 1 2.13.46v-.41h.6v2.92h-.64v-.43a1.48 1.48 0 0 0 -.74-1.29 3.26 3.26 0 0 0 -1.86-.49 2.09 2.09 0 0 0 -1.66.59 1.42 1.42 0 0 0 -.32 1.16 1.29 1.29 0 0 0 .63.95 12.25 12.25 0 0 0 1.92.78 13.64 13.64 0 0 1 2.47 1.09 2.15 2.15 0 0 1 1 1.84" fill="#8e8d8d"/><path d="m127.49 144.68v8.92q0 .51.48.51h1.27v.59h-5.31v-.59h1.27q.48 0 .48-.51v-7.82c0-.34-.2-.5-.48-.5h-1.27v-.6zm-1-4.61a1.14 1.14 0 0 1 .82.33 1.13 1.13 0 0 1 .35.82 1.09 1.09 0 0 1 -.36.85 1.21 1.21 0 0 1 -.83.35 1.18 1.18 0 0 1 -.83-.35 1.1 1.1 0 0 1 -.36-.8 1.18 1.18 0 0 1 .36-.83 1.15 1.15 0 0 1 .85-.37" fill="#8e8d8d"/><path d="m154.73 154.1v.6h-3.63l.09-1.93a3.61 3.61 0 0 1 -1.32 1.42 4.06 4.06 0 0 1 -2.48.79 4 4 0 0 1 -3.36-1.5 6.14 6.14 0 0 1 -1.16-3.89 5.29 5.29 0 0 1 5.62-5.41 6.32 6.32 0 0 1 1.71.44 2.1 2.1 0 0 1 .92.76v-4.74a.7.7 0 0 0 -.79-.77h-1v-.61h3.63v14.32c0 .35.19.52.48.52zm-3.61-4.48v-2.79a2.44 2.44 0 0 0 -1.12-1.29 3.7 3.7 0 0 0 -2-.55 2.74 2.74 0 0 0 -2 .92 5.35 5.35 0 0 0 -1.19 3.32 4.46 4.46 0 0 0 .82 3 3 3 0 0 0 2.59 1.47 2.54 2.54 0 0 0 2.35-1.34 5.49 5.49 0 0 0 .61-2.75" fill="#8e8d8d"/><path d="m177.29 149.6h-7a4.37 4.37 0 0 0 1 3 3.59 3.59 0 0 0 2.9 1.17 5.41 5.41 0 0 0 2.62-1l.28.22a5.11 5.11 0 0 1 -7.49.52 5.05 5.05 0 0 1 -1.23-3.56 5.82 5.82 0 0 1 1.33-3.83 4.38 4.38 0 0 1 3.57-1.61 3.77 3.77 0 0 1 3 1.24 4.36 4.36 0 0 1 1.12 3v.81m-1.89-.79a5.12 5.12 0 0 0 -.58-2.59 1.9 1.9 0 0 0 -1.75-1 2.45 2.45 0 0 0 -1.95.94 4 4 0 0 0 -.79 2.62c2.74.07 4.43.09 5.07 0" fill="#8e8d8d"/><path d="m203.21 154.11v.59h-5.36v-.59h1.3q.42 0 .48-.51v-5.21a2.79 2.79 0 0 0 -.66-2 2.19 2.19 0 0 0 -1.69-.72 3.08 3.08 0 0 0 -1.91.68 1.9 1.9 0 0 0 -.83 1.32v5.91c0 .34.21.51.5.51h1.28v.59h-5.32v-.59h1.27q.44 0 .51-.51v-7.58a.68.68 0 0 0 -.75-.75h-1v-.59h3.6v.59a5.82 5.82 0 0 0 0 .62v.44a3.26 3.26 0 0 1 .92-1.06 3.91 3.91 0 0 1 2.44-.88c2.36 0 3.53 1.26 3.53 3.76v5.47q.07.51.51.51z" fill="#8e8d8d"/><path d="m218.7 149.12a4.77 4.77 0 0 0 1.17 3.53 3.81 3.81 0 0 0 2.81 1.17 4.4 4.4 0 0 0 2.2-.62l.21.31a4.44 4.44 0 0 1 -3.37 1.38 4.88 4.88 0 0 1 -3.43-1.25 4.77 4.77 0 0 1 -1.45-3.63 5.5 5.5 0 0 1 1.62-3.94 5.29 5.29 0 0 1 4-1.56 3.06 3.06 0 0 1 2 .67 1.52 1.52 0 0 1 .58 1.18 1.21 1.21 0 0 1 -1.2 1.22 1.53 1.53 0 0 1 -.76-.19c-.24-.12-.33-.26-.29-.42a.71.71 0 0 1 .42-.42q.39-.24.33-.51c-.05-.49-.55-.74-1.52-.74a3.19 3.19 0 0 0 -2 .85 3.63 3.63 0 0 0 -1.32 3" fill="#8e8d8d"/><path d="m242.28 144.68v8.92q0 .51.48.51h1.24v.59h-5.31v-.59h1.31a.44.44 0 0 0 .49-.51v-7.82c0-.34-.21-.5-.49-.5h-1.27v-.6zm-1-4.61a1.14 1.14 0 0 1 .82.33 1.13 1.13 0 0 1 .35.82 1.09 1.09 0 0 1 -.36.85 1.21 1.21 0 0 1 -.83.35 1.18 1.18 0 0 1 -.83-.35 1.1 1.1 0 0 1 -.36-.8 1.18 1.18 0 0 1 .36-.83 1.15 1.15 0 0 1 .85-.37" fill="#8e8d8d"/><path d="m267.5 154.08v.62h-3.5v-1.8c-1.3 1.37-2.53 2.06-3.69 2.06a2.56 2.56 0 0 1 -1.86-.68 2.42 2.42 0 0 1 -.77-1.93 2.85 2.85 0 0 1 1.34-2.59 8.32 8.32 0 0 1 2.83-.95l2.15-.37a6 6 0 0 0 -.26-2.29 1.55 1.55 0 0 0 -1.52-1c-1.24 0-1.87.42-1.89 1.25a.87.87 0 0 0 .26.52 2.89 2.89 0 0 1 .25.32.6.6 0 0 1 -.32.55.81.81 0 0 1 -.63.15c-.73 0-1.09-.41-1.07-1.22a2 2 0 0 1 1.51-1.83 5.36 5.36 0 0 1 2-.35 3.29 3.29 0 0 1 2.59 1 5.3 5.3 0 0 1 .86 3.34v4.79a.44.44 0 0 0 .15.35.51.51 0 0 0 .35.13zm-3.5-2.08v-2.86a13.37 13.37 0 0 0 -3.14.73 1.92 1.92 0 0 0 -.94.81 2.4 2.4 0 0 0 -.38 1.3 1.59 1.59 0 0 0 .5 1.18 1.76 1.76 0 0 0 1.18.52 2.55 2.55 0 0 0 1.48-.46 4.88 4.88 0 0 0 1.3-1.22" fill="#8e8d8d"/><path d="m311.43 94.24h-58.14a53.63 53.63 0 0 1 -34.91-12.52 47.28 47.28 0 0 1 -10.93-12.23 30.32 30.32 0 0 1 -4.45-15.73c0-14.21 6.88-24.46 20.51-30.69q-2.34-23.27-27.9-23.23a32.11 32.11 0 0 0 -22.32 8.37q-8.82 7.91-9.29 20.79c0 .57-.06 1.15-.06 1.75 0 1 .05 2.07.14 3.09q1.26 13.74 13.76 26.22 9.56 9.24 17.91 12.66h-12.75q.93 1 1.92 2 14.41 13.92 27 19.08h-24.22c12.1 10.28 28.19 17.43 38 21.46h-56.63v12.21h98.6a22.33 22.33 0 0 1 -1-6.74q0-16.44 14.95-17.94 6 13.16 19.74 13.16 9.87 0 17.94-9.87a35.42 35.42 0 0 0 6.49-11.83z" fill="#daaaad"/><path d="m156.86 115.25h-56.63c9.81-4 25.91-11.18 38-21.46h-24.23q12.55-5.16 27-19.08c.66-.66 1.3-1.32 1.93-2h-12.73q8.34-3.42 17.91-12.66 12.48-12.48 13.76-26.22.15-1.53.15-3.09c0-.6 0-1.18-.07-1.75q-.48-12.87-9.31-20.8a32.11 32.11 0 0 0 -22.32-8.35q-25.59 0-27.89 23.23c13.62 6.23 20.5 16.48 20.5 30.69a30.32 30.32 0 0 1 -4.45 15.73 47.28 47.28 0 0 1 -10.93 12.23 53.61 53.61 0 0 1 -34.9 12.52h-72.52a35.42 35.42 0 0 0 6.49 11.83q8.07 9.87 17.94 9.87 13.76 0 19.74-13.16 15 1.48 15 17.94a22.37 22.37 0 0 1 -1 6.74h98.6z" fill="#809b80"/></svg>