<svg id="Capa_1" data-name="Capa 1" xmlns="http://www.w3.org/2000/svg" viewBox="0 0 209.54 81.53"><defs><style>.cls-1{fill:#fff;}</style></defs><title>logo-la-ponderosa-home</title><path class="cls-1" d="M198.89,60.31H161.74a34.25,34.25,0,0,1-22.3-8,30.24,30.24,0,0,1-7-7.81,19.38,19.38,0,0,1-2.84-10c0-9.08,4.4-15.63,13.1-19.61Q141.23,0,124.89,0a20.5,20.5,0,0,0-14.26,5.35,18,18,0,0,0-5.95,13.28c0,.37,0,.74,0,1.12q0,1,.09,2,.81,8.77,8.79,16.75c4.07,3.93,7.9,6.63,11.45,8.09h-8.15q.6.63,1.23,1.26c6.13,5.93,11.9,10,17.24,12.19H119.84c7.73,6.57,18,11.14,24.27,13.71H107.94v7.8h63a14.28,14.28,0,0,1-.64-4.3q0-10.51,9.56-11.47,3.83,8.42,12.61,8.41c4.2,0,8-2.1,11.46-6.3a22.61,22.61,0,0,0,4.15-7.56Z"/><path class="cls-1" d="M100.13,73.73H64C70.22,71.16,80.5,66.59,88.23,60H72.77q8-3.3,17.25-12.19c.42-.42.83-.84,1.23-1.27H83.1q5.33-2.18,11.44-8.08,8-8,8.79-16.75c.06-.66.1-1.32.1-2,0-.38,0-.75,0-1.12a18,18,0,0,0-6-13.28A20.52,20.52,0,0,0,83.18,0Q66.83,0,65.35,14.84c8.71,4,13.1,10.53,13.1,19.61a19.28,19.28,0,0,1-2.84,10,30,30,0,0,1-7,7.81,34.25,34.25,0,0,1-22.3,8H0a22.66,22.66,0,0,0,4.14,7.56q5.16,6.3,11.47,6.3,8.79,0,12.61-8.41,9.56,1,9.55,11.47a14.28,14.28,0,0,1-.63,4.3h63Z"/></svg>