<svg viewBox="0 0 209.54 81.53" xmlns="http://www.w3.org/2000/svg"><g fill="#fff"><path d="m198.89 60.31h-37.15a34.25 34.25 0 0 1 -22.3-8 30.24 30.24 0 0 1 -7-7.81 19.38 19.38 0 0 1 -2.84-10c0-9.08 4.4-15.63 13.1-19.61q-1.47-14.89-17.81-14.89a20.5 20.5 0 0 0 -14.26 5.35 18 18 0 0 0 -5.95 13.28v1.12q0 1 .09 2 .81 8.77 8.79 16.75c4.07 3.93 7.9 6.63 11.45 8.09h-8.15q.6.63 1.23 1.26c6.13 5.93 11.9 10 17.24 12.19h-15.49c7.73 6.57 18 11.14 24.27 13.71h-36.17v7.8h63a14.28 14.28 0 0 1 -.64-4.3q0-10.51 9.56-11.47 3.83 8.42 12.61 8.41c4.2 0 8-2.1 11.46-6.3a22.61 22.61 0 0 0 4.15-7.56z"/><path d="m100.13 73.73h-36.13c6.22-2.57 16.5-7.14 24.23-13.73h-15.46q8-3.3 17.25-12.19c.42-.42.83-.84 1.23-1.27h-8.15q5.33-2.18 11.44-8.08 8-8 8.79-16.75c.06-.66.1-1.32.1-2 0-.38 0-.75 0-1.12a18 18 0 0 0 -6-13.28 20.52 20.52 0 0 0 -14.25-5.31q-16.35 0-17.83 14.84c8.71 4 13.1 10.53 13.1 19.61a19.28 19.28 0 0 1 -2.84 10 30 30 0 0 1 -7 7.81 34.25 34.25 0 0 1 -22.3 8h-46.31a22.66 22.66 0 0 0 4.14 7.56q5.16 6.3 11.47 6.3 8.79 0 12.61-8.41 9.56 1 9.55 11.47a14.28 14.28 0 0 1 -.63 4.3h63z"/></g></svg>