<?xml version="1.0" standalone="no"?>
<!DOCTYPE svg PUBLIC "-//W3C//DTD SVG 20010904//EN"
 "http://www.w3.org/TR/2001/REC-SVG-20010904/DTD/svg10.dtd">
<svg version="1.0" xmlns="http://www.w3.org/2000/svg"
 width="1304.000000pt" height="1304.000000pt" viewBox="0 0 1304.000000 1304.000000"
 preserveAspectRatio="xMidYMid meet">
<metadata>
Created by potrace 1.11, written by Peter Selinger 2001-2013
</metadata>
<g transform="translate(0.000000,1304.000000) scale(0.100000,-0.100000)"
fill="#000000" stroke="none">
<path d="M5039 9066 c-2 -2 -29 -6 -59 -10 -53 -6 -79 -10 -145 -22 -96 -18
-313 -111 -353 -151 -7 -7 -17 -13 -21 -13 -9 0 -127 -114 -156 -150 -57 -72
-135 -221 -150 -290 -1 -3 -7 -23 -13 -45 -17 -56 -42 -185 -42 -217 0 -23 8
-32 53 -54 50 -26 182 -101 202 -116 137 -102 259 -215 303 -280 9 -13 18 -25
21 -28 48 -42 171 -296 186 -381 3 -18 8 -36 11 -40 29 -48 50 -381 31 -514
-24 -172 -82 -334 -171 -480 -17 -27 -34 -54 -38 -60 -4 -5 -39 -50 -77 -100
-171 -225 -445 -447 -733 -593 -163 -83 -302 -134 -483 -177 -5 -1 -21 -5 -35
-8 -14 -4 -38 -9 -55 -11 -16 -2 -30 -5 -30 -6 0 -1 -16 -3 -35 -5 -19 -2 -48
-7 -65 -11 -16 -5 -739 -10 -1605 -11 -866 -2 -1576 -5 -1577 -7 -2 -2 11 -36
27 -77 17 -41 32 -79 33 -84 2 -6 10 -21 20 -35 9 -13 17 -28 17 -33 0 -4 16
-33 35 -63 19 -30 35 -58 35 -63 0 -5 3 -11 8 -13 4 -1 27 -30 52 -63 59 -78
191 -211 260 -262 115 -85 255 -146 377 -163 60 -8 240 -5 283 5 14 4 34 8 45
9 11 2 20 4 20 5 0 2 10 4 23 7 46 8 145 54 211 98 119 79 234 214 297 348 9
20 23 39 31 42 16 7 130 -16 191 -38 118 -42 217 -116 281 -209 36 -53 77
-141 86 -184 38 -186 42 -329 16 -465 l-18 -88 1972 0 1972 0 -1 245 0 245
-1131 0 -1130 1 130 54 c158 67 121 50 410 191 132 64 264 132 293 150 28 19
52 31 52 28 0 -4 7 0 16 7 9 7 24 18 35 24 170 96 567 373 569 397 0 4 -212 7
-471 7 -259 -1 -473 2 -476 5 -4 3 -1 6 6 6 24 0 317 154 366 193 6 4 39 26
75 50 36 23 67 44 70 47 3 3 34 26 70 52 36 25 101 76 145 113 71 59 112 95
228 198 69 62 177 171 172 175 -2 2 -113 4 -246 4 -180 1 -237 3 -223 12 10 6
21 11 24 11 15 1 194 104 263 152 195 133 454 370 583 533 32 41 61 77 64 80
22 21 144 228 176 299 47 102 96 249 110 327 2 13 6 36 9 52 8 40 17 150 17
207 1 74 -17 262 -29 300 -3 11 -7 29 -9 40 -9 72 -109 310 -144 345 -3 3 -18
25 -34 50 -41 62 -197 216 -279 274 -109 76 -317 175 -407 192 -14 3 -38 9
-55 14 -16 5 -46 12 -65 16 -38 7 -414 17 -421 10z"/>
<path d="M7640 9058 c0 -5 -4 -7 -9 -3 -6 3 -43 -2 -83 -10 -40 -9 -77 -17
-83 -18 -5 -2 -16 -6 -22 -10 -7 -5 -13 -6 -13 -2 0 3 -16 -1 -35 -9 -20 -9
-39 -16 -43 -17 -4 -1 -23 -9 -42 -17 -208 -85 -391 -223 -518 -392 -61 -80
-67 -90 -117 -190 -62 -126 -96 -259 -111 -440 -12 -156 -4 -290 27 -415 5
-22 12 -50 14 -62 25 -113 138 -351 224 -473 33 -47 101 -138 126 -170 20 -25
310 -314 338 -337 163 -132 305 -227 450 -300 l82 -42 -243 1 c-133 0 -245 -2
-248 -5 -8 -8 182 -193 297 -289 24 -20 55 -46 69 -58 14 -12 41 -34 60 -49
19 -14 37 -28 40 -32 11 -12 228 -169 234 -169 4 0 16 -9 28 -20 12 -11 28
-20 35 -20 7 0 13 -4 13 -10 0 -5 4 -10 10 -10 5 0 33 -15 62 -33 48 -30 241
-128 278 -140 22 -8 5 -8 -493 -8 l-458 0 104 -82 c57 -45 144 -109 193 -142
49 -33 91 -63 92 -67 2 -5 7 -8 12 -8 4 0 54 -29 111 -63 145 -89 179 -107
394 -217 178 -90 446 -213 560 -256 50 -19 43 -19 -1080 -24 l-1130 -5 0 -240
0 -240 1973 -3 c1084 -1 1972 1 1972 6 0 4 -5 23 -10 42 -24 79 -32 274 -16
385 17 126 65 247 128 330 62 80 177 157 278 186 66 18 72 20 110 26 71 11 70
11 109 -60 73 -134 175 -251 276 -319 54 -37 156 -88 176 -88 8 0 20 -5 27
-12 7 -7 12 -9 12 -6 0 4 15 2 33 -3 52 -16 125 -23 227 -23 101 0 157 7 233
30 28 8 160 67 167 74 3 3 37 26 75 52 74 50 204 177 273 268 23 30 46 60 51
66 40 50 152 274 176 352 l6 22 -1508 1 c-829 0 -1528 2 -1553 4 -64 5 -171
16 -195 21 -36 8 -80 15 -105 19 -55 8 -255 67 -326 96 -16 7 -33 13 -39 14
-18 5 -238 114 -284 141 -162 95 -387 273 -490 388 -14 16 -37 40 -52 55 -14
14 -49 58 -78 96 -29 39 -59 78 -67 88 -8 9 -14 20 -14 23 0 3 -13 24 -28 47
-80 118 -148 313 -170 482 -10 82 -4 400 8 400 2 0 6 20 14 65 13 76 87 280
112 310 7 8 17 26 22 40 12 32 117 173 168 225 103 107 282 236 406 295 65 31
90 49 83 59 -5 9 -15 62 -29 156 -2 11 -4 20 -6 20 -1 0 -3 9 -4 20 -5 35 -57
175 -82 218 -13 23 -31 56 -40 72 -16 29 -57 82 -106 136 -35 38 -146 121
-204 152 -93 49 -246 99 -344 113 -14 2 -45 7 -70 10 -73 11 -420 13 -420 2z"/>
</g>
</svg>
