<svg id="Capa_1" data-name="Capa 1" xmlns="http://www.w3.org/2000/svg" viewBox="0 0 22.2 22.2"><defs><style>.cls-1{fill:#e8e8e8;}</style></defs><title>La Ponderosa pag web2</title><path class="cls-1" d="M11.1,6.9a4.2,4.2,0,1,0,4.2,4.2,4.21,4.21,0,0,0-4.2-4.2"/><path class="cls-1" d="M19.43,0H2.78A2.79,2.79,0,0,0,0,2.78V19.43A2.78,2.78,0,0,0,2.78,22.2H19.43a2.78,2.78,0,0,0,2.77-2.77V2.78A2.78,2.78,0,0,0,19.43,0M11.1,18.28a7.18,7.18,0,1,1,7.18-7.18,7.18,7.18,0,0,1-7.18,7.18M18.23,4.53A1.18,1.18,0,1,1,19.4,3.36a1.18,1.18,0,0,1-1.17,1.17"/></svg>